<svg xmlns="http://www.w3.org/2000/svg" width="348.754" height="68.761" viewBox="0 0 348.754 68.761"><defs><style>.a{fill:#cc4c6e;}.b{fill:#f3b541;}.c{fill:#4cb3aa;}.d{fill:#842c68;}</style></defs><path class="a" d="M38.416,68.6h0a10.568,10.568,0,0,1-12.072-8.589L18.219,12.191A10.568,10.568,0,0,1,26.809.119h0A10.568,10.568,0,0,1,38.88,8.709l8.125,47.822A10.568,10.568,0,0,1,38.416,68.6Z" transform="translate(2.858 0.02)"/><path class="a" d="M63.521,68.6h0a10.568,10.568,0,0,1-12.072-8.589L43.324,12.191A10.4,10.4,0,0,1,51.8.119h0A10.568,10.568,0,0,1,63.869,8.709l8.125,47.822A10.4,10.4,0,0,1,63.521,68.6Z" transform="translate(6.888 0.02)"/><path class="b" d="M6.261,67.78h0A10.52,10.52,0,0,1,.922,53.968L21.931,6.261A10.52,10.52,0,0,1,35.744.922h0a10.52,10.52,0,0,1,5.339,13.813L19.958,62.441A10.33,10.33,0,0,1,6.261,67.78Z" transform="translate(-0.042 0.029)"/><path class="c" d="M31.261,67.78h0a10.52,10.52,0,0,1-5.339-13.813L46.931,6.261A10.52,10.52,0,0,1,60.744.922h0a10.52,10.52,0,0,1,5.339,13.813L45.074,62.441A10.5,10.5,0,0,1,31.261,67.78Z" transform="translate(3.977 0.029)"/><path class="d" d="M56.261,67.78h0a10.52,10.52,0,0,1-5.339-13.813L72.047,6.261A10.52,10.52,0,0,1,85.86.922h0A10.52,10.52,0,0,1,91.2,14.735L70.074,62.441A10.422,10.422,0,0,1,56.261,67.78Z" transform="translate(7.995 0.029)"/><g transform="translate(115.329 20.336)"><path d="M101.721,18.6a.669.669,0,0,1,.7-.7h.464c.464,0,.7.116.813.58l8.589,18.456c.7,1.509,1.509,3.366,1.509,3.366h.116s.813-1.973,1.509-3.366l8.589-18.456a.873.873,0,0,1,.813-.58h.464a.616.616,0,0,1,.7.7L128.3,47.383c0,.464-.232.813-.7.813h-.348a.616.616,0,0,1-.7-.7L124.7,25.1c-.116-1.509-.116-4.063-.116-4.063h-.116s-.813,2.554-1.509,4.063l-7.777,16.715a.873.873,0,0,1-.813.58h-.7c-.464,0-.7-.116-.813-.58L105.088,25.1c-.7-1.393-1.625-4.063-1.625-4.063h-.116s0,2.67-.116,4.063l-1.973,22.518a.669.669,0,0,1-.7.7H100.1c-.464,0-.7-.232-.7-.813Z" transform="translate(-99.4 -17.436)"/><path d="M139.007,18.58a.743.743,0,0,1,.813-.58h.813a.743.743,0,0,1,.813.58L152.24,47.367c.116.464,0,.813-.58.813h-.464a.742.742,0,0,1-.812-.58l-3.83-9.866H133.784L130.069,47.6a.743.743,0,0,1-.813.58h-.464c-.58,0-.813-.348-.58-.813Zm6.964,17.411-4.643-12.3c-.464-1.277-1.161-3.6-1.161-3.6h-.116s-.7,2.321-1.161,3.6l-4.643,12.3Z" transform="translate(-94.783 -17.42)"/><path d="M158.773,35.063l-9.75-16.25c-.348-.464-.116-.813.464-.813h.464a.777.777,0,0,1,.813.464l6.848,11.491c.813,1.509,1.857,3.366,1.857,3.366h.116a31.452,31.452,0,0,1,1.857-3.366l6.848-11.491A.876.876,0,0,1,169.1,18h.464c.58,0,.813.348.464.813l-9.75,16.25v12.42a.616.616,0,0,1-.7.7h-.116a.616.616,0,0,1-.7-.7Z" transform="translate(-91.45 -17.42)"/><path d="M172.2,18.7a.616.616,0,0,1,.7-.7h.464a1.056,1.056,0,0,1,.929.464L191.236,41.8c1.045,1.393,2.438,3.83,2.438,3.83h.116s-.232-2.321-.232-3.83V18.7a.616.616,0,0,1,.7-.7h.348a.616.616,0,0,1,.7.7V47.483a.616.616,0,0,1-.7.7h-.464a1.056,1.056,0,0,1-.929-.464L176.263,24.384c-1.045-1.393-2.438-3.83-2.438-3.83h-.116s.232,2.321.232,3.83V47.367a.616.616,0,0,1-.7.7H172.9a.616.616,0,0,1-.7-.7Z" transform="translate(-87.698 -17.42)"/><path d="M213.422,17.5a15.117,15.117,0,0,1,15.322,15.438c0,8.938-6.616,15.9-15.322,15.9S198.1,41.875,198.1,32.938A15.117,15.117,0,0,1,213.422,17.5Zm0,29.6c7.661,0,13.348-6.152,13.348-14.161,0-7.777-5.688-13.7-13.348-13.7s-13.348,5.92-13.348,13.7C200.073,40.947,205.761,47.1,213.422,47.1Z" transform="translate(-83.535 -17.5)"/><path d="M243.922,17.5a15.117,15.117,0,0,1,15.322,15.438c0,8.938-6.616,15.9-15.322,15.9S228.6,41.875,228.6,32.938A15.117,15.117,0,0,1,243.922,17.5Zm0,29.6c7.661,0,13.349-6.152,13.349-14.161,0-7.777-5.688-13.7-13.349-13.7s-13.348,5.92-13.348,13.7C230.573,40.947,236.261,47.1,243.922,47.1Z" transform="translate(-78.633 -17.5)"/><path d="M266.959,19.625H256.4a.616.616,0,0,1-.7-.7V18.7a.616.616,0,0,1,.7-.7h22.983a.616.616,0,0,1,.7.7v.232a.616.616,0,0,1-.7.7H268.816V47.483a.616.616,0,0,1-.7.7h-.464a.616.616,0,0,1-.7-.7Z" transform="translate(-74.277 -17.42)"/><path d="M280.8,18.7a.616.616,0,0,1,.7-.7h.348a.616.616,0,0,1,.7.7V32.161h19.384V18.7a.616.616,0,0,1,.7-.7h.348a.616.616,0,0,1,.7.7V47.483a.616.616,0,0,1-.7.7h-.348a.616.616,0,0,1-.7-.7V33.9H282.657V47.483a.616.616,0,0,1-.7.7h-.348a.616.616,0,0,1-.7-.7V18.7Z" transform="translate(-70.242 -17.42)"/></g></svg>